<?xml version="1.0" standalone="no"?>
<!DOCTYPE svg PUBLIC "-//W3C//DTD SVG 20010904//EN"
 "http://www.w3.org/TR/2001/REC-SVG-20010904/DTD/svg10.dtd">
<svg version="1.0" xmlns="http://www.w3.org/2000/svg"
 width="700.000000pt" height="700.000000pt" viewBox="0 0 700.000000 700.000000"
 preserveAspectRatio="xMidYMid meet">
<metadata>
Created by potrace 1.14, written by Peter Selinger 2001-2017
</metadata>
<g transform="translate(0.000000,700.000000) scale(0.100000,-0.100000)"
fill="#000000" stroke="none">
<path d="M6710 6873 c-12 -5 -150 -113 -170 -133 -3 -3 -52 -44 -110 -92 -58
-48 -393 -327 -745 -620 -353 -293 -687 -571 -744 -618 -57 -47 -113 -93 -125
-104 -11 -10 -41 -35 -66 -55 -25 -20 -47 -38 -50 -41 -3 -3 -45 -39 -95 -80
-49 -41 -92 -77 -95 -80 -3 -3 -41 -34 -85 -70 -44 -36 -91 -75 -105 -86 -14
-12 -126 -106 -250 -209 -226 -187 -249 -207 -306 -254 -17 -14 -52 -44 -79
-66 -27 -22 -53 -45 -59 -50 -37 -36 -112 -85 -130 -85 -12 0 -36 9 -54 20
-18 11 -383 301 -810 643 -427 342 -784 627 -792 634 -136 109 -360 289 -375
301 -11 10 -52 42 -90 72 -39 30 -72 57 -75 60 -3 3 -48 39 -100 80 -52 41
-104 83 -115 92 -19 15 -423 339 -666 533 -124 99 -147 110 -192 91 -60 -24
-58 -2 -55 -711 l3 -650 24 -33 c12 -18 339 -286 725 -595 804 -643 2002
-1604 2060 -1650 21 -18 65 -52 96 -77 31 -25 122 -97 201 -161 79 -63 155
-123 169 -132 42 -29 82 -22 142 25 41 33 568 469 663 550 11 9 162 134 335
278 173 144 324 269 335 278 11 9 45 37 75 62 30 25 57 47 60 50 3 3 138 116
300 250 412 343 548 456 599 498 24 20 55 46 68 57 14 11 190 157 391 325 271
226 373 317 390 347 l23 42 -1 651 c0 440 -4 658 -11 672 -6 11 -26 26 -44 34
-37 15 -42 16 -65 7z"/>
<path d="M6696 4593 c-16 -8 -43 -28 -60 -43 -17 -15 -184 -155 -371 -310
-187 -155 -362 -301 -390 -325 -27 -23 -76 -63 -108 -89 -33 -26 -69 -56 -80
-66 -12 -10 -44 -37 -72 -60 -27 -23 -59 -50 -71 -59 -11 -10 -169 -141 -350
-291 -181 -150 -331 -276 -334 -280 -3 -3 -15 -13 -26 -21 -12 -8 -45 -35 -75
-61 -30 -25 -97 -82 -149 -125 -52 -43 -104 -86 -115 -95 -52 -44 -718 -597
-756 -628 -24 -19 -73 -60 -109 -91 -96 -82 -115 -92 -153 -85 -23 4 -197 138
-607 467 -316 253 -591 473 -610 489 -19 15 -96 77 -171 136 -74 60 -152 123
-174 139 -21 17 -43 35 -49 40 -18 16 -120 98 -156 125 -18 14 -38 30 -44 35
-6 6 -47 39 -91 74 -44 34 -91 72 -104 83 -13 11 -42 34 -65 52 -22 17 -50 39
-61 48 -150 128 -1047 836 -1064 841 -35 9 -89 -17 -101 -48 -16 -42 -13
-1275 3 -1311 26 -60 52 -84 432 -387 214 -172 398 -319 408 -327 11 -8 24
-20 31 -25 6 -6 177 -143 381 -305 203 -162 379 -303 390 -312 11 -9 232 -185
490 -392 259 -206 475 -379 481 -384 6 -5 147 -119 315 -252 167 -134 306
-246 309 -250 9 -13 69 -40 88 -40 11 0 36 11 56 25 29 20 318 256 336 275 3
3 30 25 60 50 30 25 60 49 66 55 6 5 31 26 55 46 24 20 78 65 119 99 41 34 84
69 95 78 30 25 377 314 400 333 11 10 54 45 95 79 41 34 95 79 120 100 48 40
165 138 240 198 45 38 299 250 335 280 69 59 103 66 150 28 l30 -24 3 -950 2
-949 25 -27 c40 -43 107 -32 171 29 6 5 30 26 54 45 57 46 178 146 210 173 14
12 72 60 130 107 58 47 116 95 130 107 14 12 100 82 191 156 187 153 223 190
238 244 14 50 15 3501 1 3537 -17 45 -76 64 -124 39z"/>
<path d="M230 2219 c-14 -5 -33 -20 -42 -32 -16 -20 -18 -68 -18 -605 0 -559
1 -584 20 -621 13 -27 66 -76 172 -161 84 -67 162 -129 173 -138 11 -10 63
-51 115 -92 52 -41 97 -77 100 -80 25 -27 442 -351 461 -358 33 -13 70 -5 94
19 19 19 20 35 23 606 3 689 13 629 -119 734 -45 35 -86 69 -93 74 -6 6 -56
46 -111 90 -55 44 -107 86 -115 92 -8 7 -91 74 -185 148 -93 75 -177 141 -185
148 -8 7 -35 28 -60 47 -25 19 -47 37 -50 40 -40 40 -139 104 -153 99 -1 0
-13 -5 -27 -10z"/>
</g>
</svg>
