<?xml version="1.0" encoding="UTF-8" standalone="no"?>
<!DOCTYPE svg PUBLIC "-//W3C//DTD SVG 1.1//EN" "http://www.w3.org/Graphics/SVG/1.1/DTD/svg11.dtd">
<svg width="100%" height="100%" viewBox="0 0 585 153" version="1.1" xmlns="http://www.w3.org/2000/svg" xmlns:xlink="http://www.w3.org/1999/xlink" xml:space="preserve" xmlns:serif="http://www.serif.com/" style="fill-rule:evenodd;clip-rule:evenodd;stroke-linejoin:round;stroke-miterlimit:2;">
    <g>
        <path d="M149.984,92.066L149.984,53.443C149.984,52.577 149.759,51.855 148.989,51.39C148.123,50.861 147.273,51.005 146.279,51.823C123.07,71.135 99.861,90.446 76.636,109.757C75.112,111.024 74.487,111.04 72.931,109.789C53.7,94.376 34.452,78.978 15.221,63.564C11.34,60.452 7.474,57.357 3.593,54.245C2.679,53.507 1.844,53.395 1.01,53.892C0.192,54.373 -0,55.127 -0,56.009C0.016,64.831 0.032,73.653 -0,82.458C-0,84.142 0.593,85.409 1.909,86.468C25.743,105.523 49.562,124.61 73.396,143.68C74.711,144.739 75.513,144.739 76.812,143.664C88.441,133.993 100.085,124.305 111.73,114.633C114.601,112.243 117.488,109.853 120.359,107.464C121.033,106.902 121.739,106.662 122.573,107.031C123.423,107.399 123.792,108.105 123.824,109.003C123.84,109.292 123.824,109.597 123.824,109.886L123.824,149.294C123.824,149.583 123.808,149.888 123.84,150.176C123.936,150.994 124.385,151.556 125.155,151.844C126.069,152.181 126.807,151.828 127.497,151.251C134.297,145.653 141.082,140.04 147.931,134.474C149.39,133.287 150,131.908 150,130.047C149.968,117.376 149.984,104.721 149.984,92.066ZM149.984,16.007L149.984,2.149C149.984,1.267 149.631,0.593 148.813,0.225C148.011,-0.144 147.257,-0.032 146.567,0.529C146.407,0.658 146.231,0.802 146.07,0.93C122.909,20.194 99.765,39.441 76.604,58.704C75.112,59.939 74.487,59.939 72.963,58.72C49.866,40.227 26.786,21.733 3.689,3.24C2.919,2.614 2.133,2.294 1.187,2.743C0.224,3.192 -0,4.01 -0,4.988C0.016,13.858 0.016,22.712 -0,31.581C-0,33.121 0.561,34.324 1.764,35.255C2.646,35.944 3.513,36.65 4.395,37.356C27.395,55.785 50.412,74.214 73.412,92.643C74.679,93.67 75.513,93.67 76.764,92.627C78.096,91.521 79.427,90.414 80.774,89.307C103.245,70.605 125.732,51.919 148.22,33.234C149.423,32.239 150,31.052 150,29.48C149.968,24.973 149.984,20.482 149.984,16.007ZM26.176,137.569C26.176,133.64 26.16,129.726 26.176,125.797C26.176,124.321 25.727,123.07 24.556,122.14C17.531,116.526 10.506,110.912 3.48,105.282C2.775,104.721 2.005,104.528 1.171,104.929C0.321,105.314 -0.016,106.036 -0.016,106.934L-0.016,131.282C-0.016,132.613 0.481,133.72 1.54,134.57C8.581,140.2 15.622,145.846 22.68,151.46C23.016,151.732 23.466,151.941 23.899,151.989C25.278,152.165 26.176,151.203 26.176,149.583L26.176,137.569Z" style="fill:white;fill-rule:nonzero;"/>
        <path d="M149.984,16.007C149.984,20.498 149.968,24.973 150,29.464C150.016,31.02 149.423,32.223 148.22,33.218C125.732,51.903 103.245,70.589 80.774,89.291C79.443,90.398 78.112,91.521 76.764,92.611C75.513,93.638 74.695,93.638 73.412,92.627C50.412,74.198 27.411,55.769 4.395,37.34C3.529,36.65 2.663,35.928 1.764,35.255C0.561,34.324 0,33.121 0,31.581C0.016,22.712 0.016,13.842 0,4.988C0,4.01 0.225,3.176 1.187,2.743C2.133,2.31 2.919,2.63 3.689,3.24C26.786,21.733 49.866,40.227 72.963,58.72C74.487,59.939 75.112,59.939 76.604,58.704C99.765,39.441 122.909,20.194 146.07,0.93C146.231,0.786 146.391,0.658 146.568,0.529C147.257,-0.032 148.011,-0.144 148.813,0.225C149.631,0.593 149.984,1.267 149.984,2.149L149.984,16.007Z" style="fill:white;fill-rule:nonzero;"/>
    </g>
    <path d="M209.09,41.629L209.09,70L194.219,70L194.219,19.586L213.484,19.586L228.145,49.152L242.84,19.586L262.07,19.586L262.07,70L247.199,70L247.199,41.629L233.102,70L223.188,70L209.09,41.629ZM270.859,19.586L285.73,19.586L285.73,70L270.859,70L270.859,19.586ZM294.555,19.586L311.957,19.586L337.094,50.77L337.094,19.586L351.965,19.586L351.965,70L334.562,70L309.426,38.816L309.426,70L294.555,70L294.555,19.586ZM360.789,19.586L375.66,19.586L375.66,70L360.789,70L360.789,19.586ZM384.484,19.586L401.887,19.586L427.023,50.77L427.023,19.586L441.895,19.586L441.895,70L424.492,70L399.355,38.816L399.355,70L384.484,70L384.484,19.586ZM463.973,44.793C463.973,46.574 464.266,48.32 464.852,50.031C465.461,51.742 466.516,53.266 468.016,54.602C469.516,55.938 471.52,57.016 474.027,57.836C476.559,58.633 479.758,59.031 483.625,59.031C486.25,59.031 488.535,58.902 490.48,58.645C492.426,58.387 493.891,58.012 494.875,57.52L494.875,50.383L482.219,50.383L482.219,39.379L508.445,39.379L508.445,64.41C506.922,65.723 505.199,66.824 503.277,67.715C501.379,68.606 499.352,69.332 497.195,69.894C495.062,70.434 492.836,70.82 490.516,71.055C488.219,71.289 485.922,71.406 483.625,71.406C477.672,71.406 472.516,70.715 468.156,69.332C463.82,67.926 460.223,66.027 457.363,63.637C454.527,61.223 452.418,58.398 451.035,55.164C449.652,51.93 448.961,48.473 448.961,44.793C448.961,41.113 449.652,37.656 451.035,34.422C452.418,31.188 454.527,28.375 457.363,25.984C460.223,23.57 463.82,21.672 468.156,20.289C472.516,18.883 477.672,18.18 483.625,18.18C485.805,18.18 487.82,18.273 489.672,18.461C491.547,18.625 493.27,18.859 494.84,19.164C496.41,19.445 497.828,19.773 499.094,20.148C500.359,20.523 501.484,20.898 502.469,21.273C504.789,22.188 506.699,23.207 508.199,24.332L501.273,34.422C499.891,33.719 498.297,33.074 496.492,32.488C494.945,32.02 493.082,31.586 490.902,31.188C488.746,30.766 486.32,30.555 483.625,30.555C479.758,30.555 476.559,30.965 474.027,31.785C471.52,32.582 469.516,33.648 468.016,34.984C466.516,36.32 465.461,37.844 464.852,39.555C464.266,41.266 463.973,43.012 463.973,44.793ZM209.09,113.629L209.09,142L194.219,142L194.219,91.586L213.484,91.586L228.145,121.152L242.84,91.586L262.07,91.586L262.07,142L247.199,142L247.199,113.629L233.102,142L223.188,142L209.09,113.629ZM314.488,133.844L287.77,133.844L283.305,142L267.344,142L295.012,91.586L307.246,91.586L334.914,142L318.953,142L314.488,133.844ZM293.957,122.523L308.301,122.523L301.129,109.41L293.957,122.523ZM340.188,142L340.188,91.586L373.34,91.586C376.598,91.586 379.621,91.914 382.41,92.57C385.199,93.203 387.602,94.234 389.617,95.664C391.656,97.094 393.25,98.957 394.398,101.254C395.547,103.527 396.121,106.293 396.121,109.551C396.121,111.613 395.793,113.43 395.137,115C394.504,116.547 393.695,117.895 392.711,119.043C391.727,120.168 390.637,121.094 389.441,121.82C388.27,122.547 387.156,123.098 386.102,123.473L396.578,142L380.617,142L371.793,126.426L355.059,126.426L355.059,142L340.188,142ZM355.059,103.996L355.059,115.105L373.34,115.105C376.035,115.105 378.004,114.684 379.246,113.84C380.488,112.973 381.109,111.543 381.109,109.551C381.109,107.582 380.488,106.164 379.246,105.297C378.004,104.43 376.035,103.996 373.34,103.996L355.059,103.996ZM441.156,91.586L460.598,91.586L434.266,113.348L460.949,142L442.773,142L424,121.82L418.48,126.391L418.48,142L403.609,142L403.609,91.586L418.48,91.586L418.48,110.324L441.156,91.586ZM516.953,110.465L516.953,122.523L481.129,122.523L481.129,129.625L518.992,129.625L518.992,142L466.258,142L466.258,91.586L518.641,91.586L518.641,103.961L481.129,103.961L481.129,110.465L516.953,110.465ZM582.309,91.586L582.309,103.961L560.898,103.961L560.898,142L546.027,142L546.027,103.961L524.617,103.961L524.617,91.586L582.309,91.586Z" style="fill:white;fill-rule:nonzero;"/>
</svg>
