<?xml version="1.0" encoding="UTF-8" standalone="no"?>
<!DOCTYPE svg PUBLIC "-//W3C//DTD SVG 1.1//EN" "http://www.w3.org/Graphics/SVG/1.1/DTD/svg11.dtd">
<svg width="100%" height="100%" viewBox="0 0 153 153" version="1.1" xmlns="http://www.w3.org/2000/svg" xmlns:xlink="http://www.w3.org/1999/xlink" xml:space="preserve" xmlns:serif="http://www.serif.com/" style="fill-rule:evenodd;clip-rule:evenodd;stroke-linejoin:round;stroke-miterlimit:2;">
    <g transform="matrix(1,0,0,1,1.50784,0.489754)">
        <path d="M149.984,92.066L149.984,53.443C149.984,52.577 149.759,51.855 148.989,51.39C148.123,50.861 147.273,51.005 146.279,51.823C123.07,71.135 99.861,90.446 76.636,109.757C75.112,111.024 74.487,111.04 72.931,109.789C53.7,94.376 34.452,78.978 15.221,63.564C11.34,60.452 7.474,57.357 3.593,54.245C2.679,53.507 1.844,53.395 1.01,53.892C0.192,54.373 -0,55.127 -0,56.009C0.016,64.831 0.032,73.653 -0,82.458C-0,84.142 0.593,85.409 1.909,86.468C25.743,105.523 49.562,124.61 73.396,143.68C74.711,144.739 75.513,144.739 76.812,143.664C88.441,133.993 100.085,124.305 111.73,114.633C114.601,112.243 117.488,109.853 120.359,107.464C121.033,106.902 121.739,106.662 122.573,107.031C123.423,107.399 123.792,108.105 123.824,109.003C123.84,109.292 123.824,109.597 123.824,109.886L123.824,149.294C123.824,149.583 123.808,149.888 123.84,150.176C123.936,150.994 124.385,151.556 125.155,151.844C126.069,152.181 126.807,151.828 127.497,151.251C134.297,145.653 141.082,140.04 147.931,134.474C149.39,133.287 150,131.908 150,130.047C149.968,117.376 149.984,104.721 149.984,92.066ZM149.984,16.007L149.984,2.149C149.984,1.267 149.631,0.593 148.813,0.225C148.011,-0.144 147.257,-0.032 146.567,0.529C146.407,0.658 146.231,0.802 146.07,0.93C122.909,20.194 99.765,39.441 76.604,58.704C75.112,59.939 74.487,59.939 72.963,58.72C49.866,40.227 26.786,21.733 3.689,3.24C2.919,2.614 2.133,2.294 1.187,2.743C0.224,3.192 -0,4.01 -0,4.988C0.016,13.858 0.016,22.712 -0,31.581C-0,33.121 0.561,34.324 1.764,35.255C2.646,35.944 3.513,36.65 4.395,37.356C27.395,55.785 50.412,74.214 73.412,92.643C74.679,93.67 75.513,93.67 76.764,92.627C78.096,91.521 79.427,90.414 80.774,89.307C103.245,70.605 125.732,51.919 148.22,33.234C149.423,32.239 150,31.052 150,29.48C149.968,24.973 149.984,20.482 149.984,16.007ZM26.176,137.569C26.176,133.64 26.16,129.726 26.176,125.797C26.176,124.321 25.727,123.07 24.556,122.14C17.531,116.526 10.506,110.912 3.48,105.282C2.775,104.721 2.005,104.528 1.171,104.929C0.321,105.314 -0.016,106.036 -0.016,106.934L-0.016,131.282C-0.016,132.613 0.481,133.72 1.54,134.57C8.581,140.2 15.622,145.846 22.68,151.46C23.016,151.732 23.466,151.941 23.899,151.989C25.278,152.165 26.176,151.203 26.176,149.583L26.176,137.569Z" style="fill:white;fill-rule:nonzero;"/>
        <path d="M149.984,16.007C149.984,20.498 149.968,24.973 150,29.464C150.016,31.02 149.423,32.223 148.22,33.218C125.732,51.903 103.245,70.589 80.774,89.291C79.443,90.398 78.112,91.521 76.764,92.611C75.513,93.638 74.695,93.638 73.412,92.627C50.412,74.198 27.411,55.769 4.395,37.34C3.529,36.65 2.663,35.928 1.764,35.255C0.561,34.324 0,33.121 0,31.581C0.016,22.712 0.016,13.842 0,4.988C0,4.01 0.225,3.176 1.187,2.743C2.133,2.31 2.919,2.63 3.689,3.24C26.786,21.733 49.866,40.227 72.963,58.72C74.487,59.939 75.112,59.939 76.604,58.704C99.765,39.441 122.909,20.194 146.07,0.93C146.231,0.786 146.391,0.658 146.568,0.529C147.257,-0.032 148.011,-0.144 148.813,0.225C149.631,0.593 149.984,1.267 149.984,2.149L149.984,16.007Z" style="fill:rgb(93,219,210);fill-rule:nonzero;"/>
    </g>
</svg>
