<svg width="64" height="64" viewBox="0 0 64 64" fill="none" xmlns="http://www.w3.org/2000/svg">
<path d="M32.3333 34.4707H15.6667C15.2246 34.4707 14.8007 34.26 14.4882 33.8849C14.1756 33.5098 14 33.0011 14 32.4707C14 31.9403 14.1756 31.4316 14.4882 31.0565C14.8007 30.6814 15.2246 30.4707 15.6667 30.4707H32.3333C32.7754 30.4707 33.1993 30.6814 33.5118 31.0565C33.8244 31.4316 34 31.9403 34 32.4707C34 33.0011 33.8244 33.5098 33.5118 33.8849C33.1993 34.26 32.7754 34.4707 32.3333 34.4707Z" fill="#4C33E4"/>
<path d="M32.3333 42.4707H15.6667C15.2246 42.4707 14.8007 42.26 14.4882 41.8849C14.1756 41.5098 14 41.0011 14 40.4707C14 39.9403 14.1756 39.4316 14.4882 39.0565C14.8007 38.6814 15.2246 38.4707 15.6667 38.4707H32.3333C32.7754 38.4707 33.1993 38.6814 33.5118 39.0565C33.8244 39.4316 34 39.9403 34 40.4707C34 41.0011 33.8244 41.5098 33.5118 41.8849C33.1993 42.26 32.7754 42.4707 32.3333 42.4707Z" fill="#4C33E4"/>
<path d="M24.2144 9.55273V7.30273H23.2671L22.605 7.98035L24.2144 9.55273ZM9.51172 24.6014L7.90234 23.029L7.26172 23.6847V24.6014H9.51172ZM33.3689 48.0152V50.2652H33.3847L33.4005 50.265L33.3689 48.0152ZM54.4847 16.4717H56.7347V14.2217H54.4847V16.4717ZM47.5658 55.3906L47.5576 57.6406H47.5658V55.3906ZM23.782 55.3041H21.532V57.5459L23.7738 57.5541L23.782 55.3041ZM48.4306 42.5054C49.6733 42.5054 50.6806 41.4981 50.6806 40.2554C50.6806 39.0128 49.6733 38.0054 48.4306 38.0054V42.5054ZM48.4306 34.7216C49.6733 34.7216 50.6806 33.7143 50.6806 32.4716C50.6806 31.229 49.6733 30.2216 48.4306 30.2216V34.7216ZM22.605 7.98035L7.90234 23.029L11.1211 26.1738L25.8238 11.1251L22.605 7.98035ZM7.26172 24.6014V47.9152H11.7617V24.6014H7.26172ZM9.61172 50.2652H33.3689V45.7652H9.61172V50.2652ZM42.4644 40.2554V9.63922H37.9644V40.2554H42.4644ZM40.1279 7.30273H24.2144V11.8027H40.1279V7.30273ZM21.9644 9.55273V24.5014H26.4644V9.55273H21.9644ZM24.1144 22.3514H9.51172V26.8514H24.1144V22.3514ZM42.4644 9.63922C42.4644 8.34877 41.4183 7.30273 40.1279 7.30273V11.8027C38.9331 11.8027 37.9644 10.8341 37.9644 9.63922H42.4644ZM33.4005 50.265C36.0883 50.2271 38.3724 48.8215 39.9262 46.9894C41.4772 45.1605 42.4644 42.728 42.4644 40.2554H37.9644C37.9644 41.5661 37.4203 42.9868 36.4942 44.0788C35.571 45.1674 34.4323 45.75 33.3372 45.7655L33.4005 50.265ZM40.2144 18.7217H54.4847V14.2217H40.2144V18.7217ZM52.2347 16.4717V48.4716H56.7347V16.4717H52.2347ZM47.5739 53.1406L23.7902 53.0541L23.7738 57.5541L47.5576 57.6405L47.5739 53.1406ZM26.032 55.3041V48.0152H21.532V55.3041H26.032ZM40.2144 42.5054H48.4306V38.0054H40.2144V42.5054ZM40.2144 34.7216H48.4306V30.2216H40.2144V34.7216ZM52.2347 48.4716C52.2347 51.0502 50.1443 53.1406 47.5658 53.1406V57.6406C52.6296 57.6406 56.7347 53.5355 56.7347 48.4716H52.2347ZM21.9644 24.5014C21.9644 23.314 22.927 22.3514 24.1144 22.3514V26.8514C25.4123 26.8514 26.4644 25.7992 26.4644 24.5014H21.9644ZM7.26172 47.9152C7.26172 49.2131 8.31385 50.2652 9.61172 50.2652V45.7652C10.7991 45.7652 11.7617 46.7278 11.7617 47.9152H7.26172Z" fill="#4C33E4"/>
</svg>
